<svg xmlns="http://www.w3.org/2000/svg" width="30" height="48" fill="none" viewBox="9414.063 -388 30 48"><path d="m9421.007-369.756-6.118-3.628a.546.546 0 0 0-.826.462v24.466c0 .189.1.363.264.461l13.321 7.914a.546.546 0 0 0 .827-.461v-7.319c0-.189-.1-.363-.263-.461l-5.57-3.314-1.08-.563a.536.536 0 0 1-.29-.476v-16.62a.538.538 0 0 0-.265-.461Zm16.067-18.167-20.537 12.164a.533.533 0 0 0-.001.922l6.154 3.653a.552.552 0 0 0 .563 0l6.076-3.6.124-.077c.304-.189.7.026.7.38v33.942c0 .418.462.676.826.462l6.109-3.607a.536.536 0 0 0 .265-.462v-35.135c0-.19.102-.365.266-.462l6.178-3.633a.534.534 0 0 0 0-.924l-6.163-3.624a.553.553 0 0 0-.56.001Z"/>
<style>
    path { fill: #222222; }

    @media (prefers-color-scheme: dark){
        path { fill: #ffffff; }
    }
</style>
</svg>