<svg xmlns="http://www.w3.org/2000/svg" width="560.292" height="539" fill="none"><g style="opacity:1"><path d="m363.5 95 .078.22c2.436 6.809 7.704 12.208 14.422 14.78-6.718 2.572-11.986 7.97-14.422 14.78l-.078.22-.078-.22c-2.437-6.81-7.705-12.208-14.422-14.78 6.717-2.572 11.985-7.971 14.422-14.78l.078-.22Z" class="fills" style="fill:#fff;fill-opacity:1"/><g class="strokes"><g class="inner-stroke-shape"><defs><clipPath id="b"><use href="#a"/></clipPath><path id="a" d="m363.5 95 .078.22c2.436 6.809 7.704 12.208 14.422 14.78-6.718 2.572-11.986 7.97-14.422 14.78l-.078.22-.078-.22c-2.437-6.81-7.705-12.208-14.422-14.78 6.717-2.572 11.985-7.971 14.422-14.78l.078-.22Z" style="fill:none;stroke-width:2;stroke:#fff;stroke-opacity:1"/></defs><use clip-path="url('#b')" href="#a"/></g></g></g><g style="opacity:1"><path d="m363.5 95 3.916 10.948L378 110l-10.584 4.052L363.5 125l-3.917-10.948L349 110l10.583-4.052L363.5 95Z" class="fills" style="fill:#fff;fill-opacity:1"/><g class="strokes"><g class="inner-stroke-shape"><defs><clipPath id="d"><use href="#c"/></clipPath><path id="c" d="m363.5 95 3.916 10.948L378 110l-10.584 4.052L363.5 125l-3.917-10.948L349 110l10.583-4.052L363.5 95Z" style="fill:none;stroke-width:2;stroke:#fff;stroke-opacity:1"/></defs><use clip-path="url('#d')" href="#c"/></g></g></g><g style="opacity:1"><path fill="none" d="m376 81 .043.124c1.344 3.859 4.25 6.919 7.957 8.376-3.707 1.457-6.613 4.516-7.957 8.376L376 98l-.043-.124c-1.345-3.86-4.251-6.919-7.957-8.376 3.706-1.457 6.612-4.517 7.957-8.376L376 81Z" class="fills" style="fill:#fff;fill-opacity:0"/><g class="strokes"><g class="inner-stroke-shape"><defs><clipPath id="f"><use href="#e"/></clipPath><path id="e" d="m376 81 .043.124c1.344 3.859 4.25 6.919 7.957 8.376-3.707 1.457-6.613 4.516-7.957 8.376L376 98l-.043-.124c-1.345-3.86-4.251-6.919-7.957-8.376 3.706-1.457 6.612-4.517 7.957-8.376L376 81Z" style="fill:none;stroke-width:2;stroke:#fff;stroke-opacity:1"/></defs><use clip-path="url('#f')" href="#e"/></g></g></g><g style="opacity:1"><rect width="336" height="201" y="141" class="fills" rx="0" ry="0"/><g class="strokes"><rect width="336" height="201" y="141" class="stroke-shape" rx="0" ry="0" style="fill:none;stroke-width:1;stroke:#fff;stroke-opacity:1"/></g></g><g style="opacity:1"><defs><linearGradient id="g" x1="0" x2="1" y1=".5" y2=".5"><stop offset="0" stop-color="#ff006a"/><stop offset="1" stop-color="#a199ff" stop-opacity="0"/></linearGradient><pattern id="h" width="336" height="29" x="0" y="141" patternUnits="userSpaceOnUse"><path d="M0 0h336v29H0z" style="fill:url(#g);fill-opacity:1"/></pattern></defs><rect width="336" height="29" y="141" fill="url(#h)" class="fills" rx="0" ry="0"/><g class="strokes"><rect width="336" height="29" y="141" class="stroke-shape" rx="0" ry="0" style="fill:none;stroke-width:1;stroke:#fff;stroke-opacity:1"/></g></g><g style="opacity:1"><circle cx="298.5" cy="156.5" r="5.5" class="fills"/><g class="strokes"><circle cx="298.5" cy="156.5" r="5.5" class="stroke-shape" style="fill:none;stroke-width:1;stroke:#fff;stroke-opacity:1"/></g></g><g style="opacity:1"><circle cx="280.5" cy="156.5" r="5.5" class="fills"/><g class="strokes"><circle cx="280.5" cy="156.5" r="5.5" class="stroke-shape" style="fill:none;stroke-width:1;stroke:#fff;stroke-opacity:1"/></g></g><g style="opacity:1"><rect width="136" height="136" x="185" y="187" class="fills" rx="0" ry="0"/><g class="strokes"><g class="inner-stroke-shape"><defs><clipPath id="j"><use href="#i"/></clipPath><rect id="i" width="136" height="136" x="185" y="187" rx="0" ry="0" style="fill:none;stroke-width:2;stroke:#fff;stroke-opacity:1"/></defs><use clip-path="url('#j')" href="#i"/></g></g></g><g style="opacity:1"><circle cx="315.5" cy="156.5" r="5.5" class="fills"/><g class="strokes"><circle cx="315.5" cy="156.5" r="5.5" class="stroke-shape" style="fill:none;stroke-width:1;stroke:#fff;stroke-opacity:1"/></g></g><g style="opacity:1"><defs><linearGradient id="k" x1=".5" x2=".5" y1=".036" y2="1"><stop offset="0" stop-color="#d9d9d9"/><stop offset="1" stop-color="#737373"/></linearGradient><pattern id="l" width="119" height="107" x="193" y="206" patternUnits="userSpaceOnUse"><path d="M0 0h119v107H0z" style="fill:url(#k);fill-opacity:1"/></pattern></defs><path fill="url(#l)" d="M312 313H193l32.882-61.701 25.052 46.471L282.641 206 312 313Z" class="fills"/><g class="strokes"><path d="M312 313H193l32.882-61.701 25.052 46.471L282.641 206 312 313Z" class="stroke-shape" style="fill:none;stroke-width:1;stroke:#fff;stroke-opacity:1"/></g></g><g style="opacity:1"><path d="M193 313h118.999l-29.358-107-31.707 91.77-25.052-46.471L193 313Z" class="fills"/><g class="strokes"><path d="M193 313h118.999l-29.358-107-31.707 91.77-25.052-46.471L193 313Z" class="stroke-shape" style="fill:none;stroke-width:1;stroke:#fff;stroke-opacity:1"/></g></g><g style="opacity:1"><path d="M19 237h130" class="fills"/><g class="strokes"><path d="M19 237h130" class="stroke-shape" style="fill:none;stroke-width:1;stroke:#fff;stroke-opacity:1"/></g></g><g style="opacity:1"><path d="M19 256h130" class="fills"/><g class="strokes"><path d="M19 256h130" class="stroke-shape" style="fill:none;stroke-width:1;stroke:#fff;stroke-opacity:1"/></g></g><g style="opacity:1"><path d="M19 276h115" class="fills"/><g class="strokes"><path d="M19 276h115" class="stroke-shape" style="fill:none;stroke-width:1;stroke:#fff;stroke-opacity:1"/></g></g><g style="opacity:1"><g style="opacity:1"><rect width="130.292" height="88.963" x="430" y="9" class="fills" rx="0" ry="0"/><g class="strokes"><g class="inner-stroke-shape"><defs><clipPath id="n"><use href="#m"/></clipPath><rect id="m" width="130.292" height="88.963" x="430" y="9" rx="0" ry="0" style="fill:none;stroke-width:2;stroke:#fff;stroke-opacity:1"/></defs><use clip-path="url('#n')" href="#m"/></g></g></g><g style="opacity:1"><rect width="112.079" height="17.512" x="438.405" y="18.807" class="fills" rx="0" ry="0"/><g class="strokes"><g class="inner-stroke-shape"><defs><clipPath id="p"><use href="#o"/></clipPath><rect id="o" width="112.079" height="17.512" x="438.405" y="18.807" rx="0" ry="0" style="fill:none;stroke-width:2;stroke:#fff;stroke-opacity:1"/></defs><use clip-path="url('#p')" href="#o"/></g></g></g><g style="opacity:1"><rect width="112.079" height="17.512" x="438.405" y="41.923" class="fills" rx="0" ry="0"/><g class="strokes"><g class="inner-stroke-shape"><defs><clipPath id="r"><use href="#q"/></clipPath><rect id="q" width="112.079" height="17.512" x="438.405" y="41.923" rx="0" ry="0" style="fill:none;stroke-width:2;stroke:#fff;stroke-opacity:1"/></defs><use clip-path="url('#r')" href="#q"/></g></g></g><g style="opacity:1"><defs><linearGradient id="s" x1="0" x2="1" y1=".5" y2=".5"><stop offset="0" stop-color="#a199ff"/><stop offset="1" stop-color="#ff006a"/></linearGradient><pattern id="t" width="59.542" height="19.614" x="490.942" y="65.74" patternUnits="userSpaceOnUse"><path d="M0 0h59.542v19.614H0z" style="fill:url(#s);fill-opacity:1"/></pattern></defs><rect width="59.542" height="19.614" x="490.942" y="65.74" fill="url(#t)" class="fills" rx="9.807" ry="9.807"/></g></g><g style="opacity:1"><path d="M19 214h130" class="fills"/><g class="strokes"><path d="M19 214h130" class="stroke-shape" style="fill:none;stroke-width:8;stroke:#fff;stroke-opacity:1"/></g></g><g style="opacity:1"><path d="M402 49H185v68" class="fills"/><g class="strokes"><g class="stroke-shape"><defs><marker id="u" fill="#fff" fill-opacity="1" markerHeight="4" markerWidth="4" orient="auto-start-reverse" refX="3" refY="3" viewBox="0 0 6 6"><circle cx="3" cy="3" r="3"/></marker></defs><path d="M402 49H185v68" style="fill:none;stroke-width:1;stroke:#fff;stroke-opacity:1;stroke-dasharray:11,11;marker-start:url(#u);marker-end:url(#marker-render-25-circle-marker)"/></g></g></g><g style="opacity:1"><path d="M19 295h96" class="fills"/><g class="strokes"><path d="M19 295h96" class="stroke-shape" style="fill:none;stroke-width:1;stroke:#fff;stroke-opacity:1"/></g></g><g style="opacity:1"><g style="opacity:1"><defs><linearGradient id="v" x1=".5" x2=".5" y1="0" y2="1"><stop offset="0" stop-color="#ff006a" stop-opacity="0"/><stop offset="1" stop-color="#a199ff"/></linearGradient><pattern id="w" width="21.851" height="21.851" x="396.706" y="288.827" patternUnits="userSpaceOnUse"><path d="M0 0h21.851v21.851H0z" style="fill:url(#v);fill-opacity:1"/></pattern></defs><circle cx="407.631" cy="299.753" r="10.925" fill="url(#w)" class="fills" transform="matrix(-1 0 0 1 815.263 0)"/><g class="strokes"><g class="inner-stroke-shape" transform="matrix(-1 0 0 1 815.263 0)"><defs><clipPath id="y"><use href="#x"/></clipPath><circle id="x" cx="407.631" cy="299.753" r="10.925" style="fill:none;stroke-width:2;stroke:#fff;stroke-opacity:1"/></defs><use clip-path="url('#y')" href="#x"/></g></g></g><g style="opacity:1"><defs><linearGradient id="z" x1=".5" x2=".5" y1="0" y2="1"><stop offset="0" stop-color="#ff006a" stop-opacity="0"/><stop offset="1" stop-color="#a199ff"/></linearGradient><pattern id="A" width="21.851" height="21.851" x="396.706" y="316.921" patternUnits="userSpaceOnUse"><path d="M0 0h21.851v21.851H0z" style="fill:url(#z);fill-opacity:1"/></pattern></defs><circle cx="407.631" cy="327.846" r="10.925" fill="url(#A)" class="fills" transform="matrix(-1 0 0 1 815.263 0)"/><g class="strokes"><g class="inner-stroke-shape" transform="matrix(-1 0 0 1 815.263 0)"><defs><clipPath id="C"><use href="#B"/></clipPath><circle id="B" cx="407.631" cy="327.846" r="10.925" style="fill:none;stroke-width:2;stroke:#fff;stroke-opacity:1"/></defs><use clip-path="url('#C')" href="#B"/></g></g></g><g style="opacity:1"><circle cx="407.631" cy="355.94" r="10.925" class="fills" transform="matrix(-1 0 0 1 815.263 0)"/><g class="strokes"><g class="inner-stroke-shape" transform="matrix(-1 0 0 1 815.263 0)"><defs><clipPath id="E"><use href="#D"/></clipPath><circle id="D" cx="407.631" cy="355.94" r="10.925" style="fill:none;stroke-width:2;stroke:#fff;stroke-opacity:1"/></defs><use clip-path="url('#E')" href="#D"/></g></g></g><g style="opacity:1"><g style="opacity:1"><path d="M424.881 302.159h62.43" class="fills"/><g class="strokes"><path d="M424.881 302.159h62.43" class="stroke-shape" style="fill:none;stroke-width:2;stroke:#fff;stroke-opacity:1"/></g></g><g style="opacity:1"><path d="M424.881 296.696h103.4" class="fills"/><g class="strokes"><path d="M424.881 296.696h103.4" class="stroke-shape" style="fill:none;stroke-width:4;stroke:#fff;stroke-opacity:1"/></g></g></g><g style="opacity:1"><g style="opacity:1"><path d="M424.881 330.332h62.43" class="fills"/><g class="strokes"><path d="M424.881 330.332h62.43" class="stroke-shape" style="fill:none;stroke-width:2;stroke:#fff;stroke-opacity:1"/></g></g><g style="opacity:1"><path d="M424.881 324.87h103.4" class="fills"/><g class="strokes"><path d="M424.881 324.87h103.4" class="stroke-shape" style="fill:none;stroke-width:4;stroke:#fff;stroke-opacity:1"/></g></g></g><g style="opacity:1"><g style="opacity:1"><path d="M424.881 358.506h62.43" class="fills"/><g class="strokes"><path d="M424.881 358.506h62.43" class="stroke-shape" style="fill:none;stroke-width:2;stroke:#fff;stroke-opacity:1"/></g></g><g style="opacity:1"><path d="M424.881 353.043h103.4" class="fills"/><g class="strokes"><path d="M424.881 353.043h103.4" class="stroke-shape" style="fill:none;stroke-width:4;stroke:#fff;stroke-opacity:1"/></g></g></g><g style="opacity:1"><rect width="164.66" height="107.692" x="385" y="274" class="fills" rx="0" ry="0"/><g class="strokes"><g class="inner-stroke-shape"><defs><clipPath id="G"><use href="#F"/></clipPath><rect id="F" width="164.66" height="107.692" x="385" y="274" rx="0" ry="0" style="fill:none;stroke-width:2;stroke:#fff;stroke-opacity:1"/></defs><use clip-path="url('#G')" href="#F"/></g></g></g></g><g style="opacity:1"><path d="M156 357v182h249v-25.452" class="fills"/><g class="strokes"><g class="stroke-shape"><defs><marker id="H" fill="#fff" fill-opacity="1" markerHeight="4" markerWidth="4" orient="auto-start-reverse" refX="3" refY="3" viewBox="0 0 6 6"><circle cx="3" cy="3" r="3"/></marker></defs><path d="M156 357v182h249v-25.452" style="fill:none;stroke-width:1;stroke:#fff;stroke-opacity:1;stroke-dasharray:11,11;marker-start:url(#H);marker-end:url(#marker-render-41-circle-marker)"/></g></g></g><g style="opacity:1"><g style="opacity:1"><defs><linearGradient id="I" x1="0" x2=".946" y1="0" y2="1"><stop offset="0" stop-color="#ff006a" stop-opacity="0"/><stop offset="1" stop-color="#a199ff"/></linearGradient><pattern id="J" width="62" height="62" x="5" y="0" patternUnits="userSpaceOnUse"><path d="M0 0h62v62H0z" style="fill:url(#I);fill-opacity:1"/></pattern></defs><rect width="62" height="62" x="5" fill="url(#J)" class="fills" rx="0" ry="0"/><g class="strokes"><g class="inner-stroke-shape"><defs><clipPath id="L"><use href="#K"/></clipPath><rect id="K" width="62" height="62" x="5" y="0" rx="0" ry="0" style="fill:none;stroke-width:2;stroke:#fff;stroke-opacity:1"/></defs><use clip-path="url('#L')" href="#K"/></g></g></g><g style="opacity:1"><g style="opacity:1"><path d="M27.642 19.898 16.457 31.337l11.185 11.439" class="fills"/><g class="strokes"><path d="M27.642 19.898 16.457 31.337l11.185 11.439" class="stroke-shape" style="fill:none;stroke-width:1;stroke:#fff;stroke-opacity:1"/></g></g><g style="opacity:1"><path d="M40.86 16.848 30.184 45.826" class="fills"/><g class="strokes"><path d="M40.86 16.848 30.184 45.826" class="stroke-shape" style="fill:none;stroke-width:1;stroke:#fff;stroke-opacity:1"/></g></g><g style="opacity:1"><path d="m43.91 19.898 11.185 11.439L43.91 42.776" class="fills"/><g class="strokes"><path d="m43.91 19.898 11.185 11.439L43.91 42.776" class="stroke-shape" style="fill:none;stroke-width:1;stroke:#fff;stroke-opacity:1"/></g></g></g></g><g style="opacity:1"><path d="M81 33h75v91" class="fills"/><g class="strokes"><g class="stroke-shape"><defs><marker id="M" fill="#fff" fill-opacity="1" markerHeight="4" markerWidth="4" orient="auto-start-reverse" refX="3" refY="3" viewBox="0 0 6 6"><circle cx="3" cy="3" r="3"/></marker></defs><path d="M81 33h75v91" style="fill:none;stroke-width:1;stroke:#fff;stroke-opacity:1;stroke-dasharray:11,11;marker-start:url(#M);marker-end:url(#marker-render-48-circle-marker)"/></g></g></g><g style="opacity:1"><g style="opacity:1"><ellipse cx="404.993" cy="438.145" class="fills" rx="47.993" ry="10.145"/><g class="strokes"><g class="inner-stroke-shape"><defs><clipPath id="O"><use href="#N"/></clipPath><ellipse id="N" cx="404.993" cy="438.145" rx="47.993" ry="10.145" style="fill:none;stroke-width:2;stroke:#fff;stroke-opacity:1"/></defs><use clip-path="url('#O')" href="#N"/></g></g></g><g style="opacity:1"><defs><linearGradient id="P" x1="0" x2="1" y1=".5" y2=".5"><stop offset="0" stop-color="#ff006a"/><stop offset="1" stop-color="#a199ff" stop-opacity="0"/></linearGradient><pattern id="Q" width="95.987" height="20.29" x="357" y="438.145" patternUnits="userSpaceOnUse"><path d="M0 0h95.987v20.29H0z" style="fill:url(#P);fill-opacity:1"/></pattern></defs><ellipse cx="404.993" cy="448.29" fill="url(#Q)" class="fills" rx="47.993" ry="10.145"/><g class="strokes"><g class="inner-stroke-shape"><defs><clipPath id="S"><use href="#R"/></clipPath><ellipse id="R" cx="404.993" cy="448.29" rx="47.993" ry="10.145" style="fill:none;stroke-width:2;stroke:#fff;stroke-opacity:1"/></defs><use clip-path="url('#S')" href="#R"/></g></g></g><g style="opacity:1"><ellipse cx="404.993" cy="458.435" class="fills" rx="47.993" ry="10.145"/><g class="strokes"><g class="inner-stroke-shape"><defs><clipPath id="U"><use href="#T"/></clipPath><ellipse id="T" cx="404.993" cy="458.435" rx="47.993" ry="10.145" style="fill:none;stroke-width:2;stroke:#fff;stroke-opacity:1"/></defs><use clip-path="url('#U')" href="#T"/></g></g></g><g style="opacity:1"><defs><linearGradient id="V" x1="0" x2="1" y1=".5" y2=".5"><stop offset="0" stop-color="#a199ff" stop-opacity="0"/><stop offset="1" stop-color="#a199ff"/></linearGradient><pattern id="W" width="95.987" height="20.29" x="357" y="458.435" patternUnits="userSpaceOnUse"><path d="M0 0h95.987v20.29H0z" style="fill:url(#V);fill-opacity:1"/></pattern></defs><ellipse cx="404.993" cy="468.58" fill="url(#W)" class="fills" rx="47.993" ry="10.145"/><g class="strokes"><g class="inner-stroke-shape"><defs><clipPath id="Y"><use href="#X"/></clipPath><ellipse id="X" cx="404.993" cy="468.58" rx="47.993" ry="10.145" style="fill:none;stroke-width:2;stroke:#fff;stroke-opacity:1"/></defs><use clip-path="url('#Y')" href="#X"/></g></g></g><g style="opacity:1"><ellipse cx="404.993" cy="478.725" class="fills" rx="47.993" ry="10.145"/><g class="strokes"><g class="inner-stroke-shape"><defs><clipPath id="aa"><use href="#Z"/></clipPath><ellipse id="Z" cx="404.993" cy="478.725" rx="47.993" ry="10.145" style="fill:none;stroke-width:2;stroke:#fff;stroke-opacity:1"/></defs><use clip-path="url('#aa')" href="#Z"/></g></g></g></g><g style="opacity:1"><path d="M349 219h120v29" class="fills"/><g class="strokes"><g class="stroke-shape"><defs><marker id="ab" fill="#fff" fill-opacity="1" markerHeight="4" markerWidth="4" orient="auto-start-reverse" refX="3" refY="3" viewBox="0 0 6 6"><circle cx="3" cy="3" r="3"/></marker></defs><path d="M349 219h120v29" style="fill:none;stroke-width:1;stroke:#fff;stroke-opacity:1;stroke-dasharray:11,11;marker-start:url(#ab);marker-end:url(#marker-render-55-circle-marker)"/></g></g></g></svg>