<svg xmlns="http://www.w3.org/2000/svg" id="screenshot-07206f0f-94c5-8018-8005-d50cdfd061f4" width="571.261" height="531" fill="none" version="1.1"><style>@font-face{font-family:&quot;Inter&quot;;font-style:normal;font-weight:400;font-display:block;src:url(https://design.penpot.app/internal/gfonts/font/inter/v18/UcCO3FwrK3iLTeHuS_nVMrMxCp50SjIw2boKoduKmMEVuLyfAZJhiI2B.woff2)format(&quot;woff2&quot;);unicode-range:U+0460-052F,U+1C80-1C8A,U+20B4,U+2DE0-2DFF,U+A640-A69F,U+FE2E-FE2F}@font-face{font-family:&quot;Inter&quot;;font-style:normal;font-weight:400;font-display:block;src:url(https://design.penpot.app/internal/gfonts/font/inter/v18/UcCO3FwrK3iLTeHuS_nVMrMxCp50SjIw2boKoduKmMEVuLyfAZthiI2B.woff2)format(&quot;woff2&quot;);unicode-range:U+0301,U+0400-045F,U+0490-0491,U+04B0-04B1,U+2116}@font-face{font-family:&quot;Inter&quot;;font-style:normal;font-weight:400;font-display:block;src:url(https://design.penpot.app/internal/gfonts/font/inter/v18/UcCO3FwrK3iLTeHuS_nVMrMxCp50SjIw2boKoduKmMEVuLyfAZNhiI2B.woff2)format(&quot;woff2&quot;);unicode-range:U+1F00-1FFF}@font-face{font-family:&quot;Inter&quot;;font-style:normal;font-weight:400;font-display:block;src:url(https://design.penpot.app/internal/gfonts/font/inter/v18/UcCO3FwrK3iLTeHuS_nVMrMxCp50SjIw2boKoduKmMEVuLyfAZxhiI2B.woff2)format(&quot;woff2&quot;);unicode-range:U+0370-0377,U+037A-037F,U+0384-038A,U+038C,U+038E-03A1,U+03A3-03FF}@font-face{font-family:&quot;Inter&quot;;font-style:normal;font-weight:400;font-display:block;src:url(https://design.penpot.app/internal/gfonts/font/inter/v18/UcCO3FwrK3iLTeHuS_nVMrMxCp50SjIw2boKoduKmMEVuLyfAZBhiI2B.woff2)format(&quot;woff2&quot;);unicode-range:U+0102-0103,U+0110-0111,U+0128-0129,U+0168-0169,U+01A0-01A1,U+01AF-01B0,U+0300-0301,U+0303-0304,U+0308-0309,U+0323,U+0329,U+1EA0-1EF9,U+20AB}@font-face{font-family:&quot;Inter&quot;;font-style:normal;font-weight:400;font-display:block;src:url(https://design.penpot.app/internal/gfonts/font/inter/v18/UcCO3FwrK3iLTeHuS_nVMrMxCp50SjIw2boKoduKmMEVuLyfAZFhiI2B.woff2)format(&quot;woff2&quot;);unicode-range:U+0100-02BA,U+02BD-02C5,U+02C7-02CC,U+02CE-02D7,U+02DD-02FF,U+0304,U+0308,U+0329,U+1D00-1DBF,U+1E00-1E9F,U+1EF2-1EFF,U+2020,U+20A0-20AB,U+20AD-20C0,U+2113,U+2C60-2C7F,U+A720-A7FF}@font-face{font-family:&quot;Inter&quot;;font-style:normal;font-weight:400;font-display:block;src:url(https://design.penpot.app/internal/gfonts/font/inter/v18/UcCO3FwrK3iLTeHuS_nVMrMxCp50SjIw2boKoduKmMEVuLyfAZ9hiA.woff2)format(&quot;woff2&quot;);unicode-range:U+0000-00FF,U+0131,U+0152-0153,U+02BB-02BC,U+02C6,U+02DA,U+02DC,U+0304,U+0308,U+0329,U+2000-206F,U+20AC,U+2122,U+2191,U+2193,U+2212,U+2215,U+FEFF,U+FFFD}</style><g id="shape-07206f0f-94c5-8018-8005-d50cdfd061f4" style="opacity:1"><g id="shape-07206f0f-94c5-8018-8005-d50cdfd094ae" style="opacity:1"><defs><linearGradient id="fill-color-gradient-render-2-0" x1="0" x2="1" y1=".5" y2=".5"><stop offset="0" stop-color="#ff006a" stop-opacity="0"/><stop offset="1" stop-color="#a199ff"/></linearGradient><pattern id="fill-0-render-2" width="320.814" height="137.229" x="138.05" y="312.64" patternUnits="userSpaceOnUse"><path d="M0 0h320.814v137.229H0z" style="fill:url(#fill-color-gradient-render-2-0);fill-opacity:1"/></pattern></defs><path id="fills-07206f0f-94c5-8018-8005-d50cdfd094ae" fill="url(#fill-0-render-2)" d="m253.763 340.537 205.101-27.897-115.712 109.332-205.102 27.897 115.713-109.332Z" class="fills"/><g id="strokes-5b2f603d-fd94-80fa-8005-d519831c93c5-07206f0f-94c5-8018-8005-d50cdfd094ae" fill-rule="nonzero" class="strokes"><g class="inner-stroke-shape"><defs><clipPath id="inner-stroke-render-2-07206f0f-94c5-8018-8005-d50cdfd094ae-0"><use href="#stroke-shape-render-2-07206f0f-94c5-8018-8005-d50cdfd094ae-0"/></clipPath><path id="stroke-shape-render-2-07206f0f-94c5-8018-8005-d50cdfd094ae-0" d="m253.763 340.537 205.101-27.897-115.712 109.332-205.102 27.897 115.713-109.332Z" style="fill:none;stroke-width:2;stroke:#fff;stroke-opacity:1"/></defs><use clip-path="url('#inner-stroke-render-2-07206f0f-94c5-8018-8005-d50cdfd094ae-0')" href="#stroke-shape-render-2-07206f0f-94c5-8018-8005-d50cdfd094ae-0"/></g></g></g><g id="shape-07206f0f-94c5-8018-8005-d50cdfd0d171" style="opacity:1"><path id="fills-07206f0f-94c5-8018-8005-d50cdfd0d171" d="m246.751 285.99 205.102-27.897L336.14 367.425l-205.102 27.897L246.751 285.99Z" class="fills"/><g id="strokes-5b2f603d-fd94-80fa-8005-d519831d4912-07206f0f-94c5-8018-8005-d50cdfd0d171" fill-rule="nonzero" class="strokes"><g class="inner-stroke-shape"><defs><clipPath id="inner-stroke-render-3-07206f0f-94c5-8018-8005-d50cdfd0d171-0"><use href="#stroke-shape-render-3-07206f0f-94c5-8018-8005-d50cdfd0d171-0"/></clipPath><path id="stroke-shape-render-3-07206f0f-94c5-8018-8005-d50cdfd0d171-0" d="m246.751 285.99 205.102-27.897L336.14 367.425l-205.102 27.897L246.751 285.99Z" style="fill:none;stroke-width:2;stroke:#fff;stroke-opacity:1"/></defs><use clip-path="url('#inner-stroke-render-3-07206f0f-94c5-8018-8005-d50cdfd0d171-0')" href="#stroke-shape-render-3-07206f0f-94c5-8018-8005-d50cdfd0d171-0"/></g></g></g><g id="shape-07206f0f-94c5-8018-8005-d50cdfd0d173" style="opacity:1"><defs><linearGradient id="fill-color-gradient-render-4-0" x1="0" x2="1" y1=".5" y2=".5"><stop offset="0" stop-color="#ff006a"/><stop offset="1" stop-color="#a199ff" stop-opacity="0"/></linearGradient><pattern id="fill-0-render-4" width="320.814" height="137.229" x="124.026" y="203.546" patternUnits="userSpaceOnUse"><path d="M0 0h320.814v137.229H0z" style="fill:url(#fill-color-gradient-render-4-0);fill-opacity:1"/></pattern></defs><path id="fills-07206f0f-94c5-8018-8005-d50cdfd0d173" fill="url(#fill-0-render-4)" d="m239.738 231.443 205.102-27.897-115.713 109.332-205.101 27.897 115.712-109.332Z" class="fills"/><g id="strokes-5b2f603d-fd94-80fa-8005-d519831e1aa0-07206f0f-94c5-8018-8005-d50cdfd0d173" fill-rule="nonzero" class="strokes"><g class="inner-stroke-shape"><defs><clipPath id="inner-stroke-render-4-07206f0f-94c5-8018-8005-d50cdfd0d173-0"><use href="#stroke-shape-render-4-07206f0f-94c5-8018-8005-d50cdfd0d173-0"/></clipPath><path id="stroke-shape-render-4-07206f0f-94c5-8018-8005-d50cdfd0d173-0" d="m239.738 231.443 205.102-27.897-115.713 109.332-205.101 27.897 115.712-109.332Z" style="fill:none;stroke-width:2;stroke:#fff;stroke-opacity:1"/></defs><use clip-path="url('#inner-stroke-render-4-07206f0f-94c5-8018-8005-d50cdfd0d173-0')" href="#stroke-shape-render-4-07206f0f-94c5-8018-8005-d50cdfd0d173-0"/></g></g></g><g id="shape-07206f0f-94c5-8018-8005-d50cdfd11073" style="opacity:1"><path id="fills-07206f0f-94c5-8018-8005-d50cdfd11073" d="m232.727 176.896 205.101-27.897-115.713 109.332-205.101 27.897 115.713-109.332Z" class="fills"/><g id="strokes-5b2f603d-fd94-80fa-8005-d519831e5cde-07206f0f-94c5-8018-8005-d50cdfd11073" fill-rule="nonzero" class="strokes"><g class="inner-stroke-shape"><defs><clipPath id="inner-stroke-render-5-07206f0f-94c5-8018-8005-d50cdfd11073-0"><use href="#stroke-shape-render-5-07206f0f-94c5-8018-8005-d50cdfd11073-0"/></clipPath><path id="stroke-shape-render-5-07206f0f-94c5-8018-8005-d50cdfd11073-0" d="m232.727 176.896 205.101-27.897-115.713 109.332-205.101 27.897 115.713-109.332Z" style="fill:none;stroke-width:2;stroke:#fff;stroke-opacity:1"/></defs><use clip-path="url('#inner-stroke-render-5-07206f0f-94c5-8018-8005-d50cdfd11073-0')" href="#stroke-shape-render-5-07206f0f-94c5-8018-8005-d50cdfd11073-0"/></g></g></g><g id="shape-07206f0f-94c5-8018-8005-d50cdfd141b7" style="opacity:1"><defs><linearGradient id="fill-color-gradient-render-6-1" x1="0" x2="1" y1=".5" y2=".5"><stop offset="0" stop-color="#d9d9d9"/><stop offset="1" stop-color="#737373" stop-opacity="0"/></linearGradient><linearGradient id="fill-color-gradient-render-6-0" x1="0" x2="1" y1=".5" y2=".5"><stop offset="0" stop-color="#a199ff"/><stop offset="1" stop-color="#ff006a" stop-opacity="0"/></linearGradient><pattern id="fill-0-render-6" width="320.814" height="137.229" x="110.002" y="94.452" patternUnits="userSpaceOnUse"><path d="M0 0h320.814v137.229H0z" style="fill:url(#fill-color-gradient-render-6-1);fill-opacity:1"/><path d="M0 0h320.814v137.229H0z" style="fill:url(#fill-color-gradient-render-6-0);fill-opacity:1"/></pattern></defs><path id="fills-07206f0f-94c5-8018-8005-d50cdfd141b7" fill="url(#fill-0-render-6)" d="m225.715 122.349 205.101-27.897-115.712 109.332-205.102 27.897 115.713-109.332Z" class="fills"/><g id="strokes-5b2f603d-fd94-80fa-8005-d519831ed228-07206f0f-94c5-8018-8005-d50cdfd141b7" fill-rule="nonzero" class="strokes"><g class="inner-stroke-shape"><defs><clipPath id="inner-stroke-render-6-07206f0f-94c5-8018-8005-d50cdfd141b7-0"><use href="#stroke-shape-render-6-07206f0f-94c5-8018-8005-d50cdfd141b7-0"/></clipPath><path id="stroke-shape-render-6-07206f0f-94c5-8018-8005-d50cdfd141b7-0" d="m225.715 122.349 205.101-27.897-115.712 109.332-205.102 27.897 115.713-109.332Z" style="fill:none;stroke-width:2;stroke:#fff;stroke-opacity:1"/></defs><use clip-path="url('#inner-stroke-render-6-07206f0f-94c5-8018-8005-d50cdfd141b7-0')" href="#stroke-shape-render-6-07206f0f-94c5-8018-8005-d50cdfd141b7-0"/></g></g></g><g id="shape-07206f0f-94c5-8018-8005-d50cdfd1bd1d" style="opacity:1"><path id="fills-07206f0f-94c5-8018-8005-d50cdfd1bd1d" d="m218.702 67.802 205.102-27.897-115.713 109.332-205.101 27.897L218.702 67.802Z" class="fills"/><g id="strokes-5b2f603d-fd94-80fa-8005-d519831f087c-07206f0f-94c5-8018-8005-d50cdfd1bd1d" fill-rule="nonzero" class="strokes"><g class="inner-stroke-shape"><defs><clipPath id="inner-stroke-render-7-07206f0f-94c5-8018-8005-d50cdfd1bd1d-0"><use href="#stroke-shape-render-7-07206f0f-94c5-8018-8005-d50cdfd1bd1d-0"/></clipPath><path id="stroke-shape-render-7-07206f0f-94c5-8018-8005-d50cdfd1bd1d-0" d="m218.702 67.802 205.102-27.897-115.713 109.332-205.101 27.897L218.702 67.802Z" style="fill:none;stroke-width:2;stroke:#fff;stroke-opacity:1"/></defs><use clip-path="url('#inner-stroke-render-7-07206f0f-94c5-8018-8005-d50cdfd1bd1d-0')" href="#stroke-shape-render-7-07206f0f-94c5-8018-8005-d50cdfd1bd1d-0"/></g></g></g><g id="shape-07206f0f-94c5-8018-8005-d50cdfd1e3c6"><g id="shape-07206f0f-94c5-8018-8005-d50cdfd1e3c8" style="opacity:1"><path id="fills-07206f0f-94c5-8018-8005-d50cdfd1e3c8" d="m475.5 0 .1.278A31.423 31.423 0 0 0 494 19a31.423 31.423 0 0 0-18.4 18.722l-.1.278-.1-.278A31.423 31.423 0 0 0 457 19 31.423 31.423 0 0 0 475.4.278l.1-.278Z" class="fills"/><g id="strokes-5b2f603d-fd94-80fa-8005-d519831ff604-07206f0f-94c5-8018-8005-d50cdfd1e3c8" fill-rule="nonzero" class="strokes"><g class="inner-stroke-shape"><defs><clipPath id="inner-stroke-render-9-07206f0f-94c5-8018-8005-d50cdfd1e3c8-0"><use href="#stroke-shape-render-9-07206f0f-94c5-8018-8005-d50cdfd1e3c8-0"/></clipPath><path id="stroke-shape-render-9-07206f0f-94c5-8018-8005-d50cdfd1e3c8-0" d="m475.5 0 .1.278A31.423 31.423 0 0 0 494 19a31.423 31.423 0 0 0-18.4 18.722l-.1.278-.1-.278A31.423 31.423 0 0 0 457 19 31.423 31.423 0 0 0 475.4.278l.1-.278Z" style="fill:none;stroke-width:2;stroke:#fff;stroke-opacity:1"/></defs><use clip-path="url('#inner-stroke-render-9-07206f0f-94c5-8018-8005-d50cdfd1e3c8-0')" href="#stroke-shape-render-9-07206f0f-94c5-8018-8005-d50cdfd1e3c8-0"/></g></g></g><g id="shape-07206f0f-94c5-8018-8005-d50cdfd20328" style="opacity:1"><path id="fills-07206f0f-94c5-8018-8005-d50cdfd20328" d="m475.5 0 4.997 13.868L494 19l-13.503 5.132L475.5 38l-4.997-13.868L457 19l13.503-5.132L475.5 0Z" class="fills"/><g id="strokes-5b2f603d-fd94-80fa-8005-d51983207c46-07206f0f-94c5-8018-8005-d50cdfd20328" fill-rule="nonzero" class="strokes"><g class="inner-stroke-shape"><defs><clipPath id="inner-stroke-render-10-07206f0f-94c5-8018-8005-d50cdfd20328-0"><use href="#stroke-shape-render-10-07206f0f-94c5-8018-8005-d50cdfd20328-0"/></clipPath><path id="stroke-shape-render-10-07206f0f-94c5-8018-8005-d50cdfd20328-0" d="m475.5 0 4.997 13.868L494 19l-13.503 5.132L475.5 38l-4.997-13.868L457 19l13.503-5.132L475.5 0Z" style="fill:none;stroke-width:2;stroke:#fff;stroke-opacity:1"/></defs><use clip-path="url('#inner-stroke-render-10-07206f0f-94c5-8018-8005-d50cdfd20328-0')" href="#stroke-shape-render-10-07206f0f-94c5-8018-8005-d50cdfd20328-0"/></g></g></g></g><g id="shape-07206f0f-94c5-8018-8005-d50cdfd24a7a"><g id="shape-07206f0f-94c5-8018-8005-d50cdfd24a7c" style="opacity:1"><path id="fills-07206f0f-94c5-8018-8005-d50cdfd24a7c" d="m106.5 493 .1.278A31.423 31.423 0 0 0 125 512a31.423 31.423 0 0 0-18.4 18.722l-.1.278-.1-.278A31.423 31.423 0 0 0 88 512a31.423 31.423 0 0 0 18.4-18.722l.1-.278Z" class="fills" style="fill:#fff;fill-opacity:1"/><g id="strokes-5b2f603d-fd94-80fa-8005-d5198320e888-07206f0f-94c5-8018-8005-d50cdfd24a7c" fill-rule="nonzero" class="strokes"><g class="inner-stroke-shape"><defs><clipPath id="inner-stroke-render-12-07206f0f-94c5-8018-8005-d50cdfd24a7c-0"><use href="#stroke-shape-render-12-07206f0f-94c5-8018-8005-d50cdfd24a7c-0"/></clipPath><path id="stroke-shape-render-12-07206f0f-94c5-8018-8005-d50cdfd24a7c-0" d="m106.5 493 .1.278A31.423 31.423 0 0 0 125 512a31.423 31.423 0 0 0-18.4 18.722l-.1.278-.1-.278A31.423 31.423 0 0 0 88 512a31.423 31.423 0 0 0 18.4-18.722l.1-.278Z" style="fill:none;stroke-width:2;stroke:#fff;stroke-opacity:1"/></defs><use clip-path="url('#inner-stroke-render-12-07206f0f-94c5-8018-8005-d50cdfd24a7c-0')" href="#stroke-shape-render-12-07206f0f-94c5-8018-8005-d50cdfd24a7c-0"/></g></g></g><g id="shape-07206f0f-94c5-8018-8005-d50cdfd2b5f6" style="opacity:1"><path id="fills-07206f0f-94c5-8018-8005-d50cdfd2b5f6" d="m106.5 493 4.997 13.868L125 512l-13.503 5.132L106.5 531l-4.997-13.868L88 512l13.503-5.132L106.5 493Z" class="fills" style="fill:#fff;fill-opacity:1"/><g id="strokes-5b2f603d-fd94-80fa-8005-d5198321295d-07206f0f-94c5-8018-8005-d50cdfd2b5f6" fill-rule="nonzero" class="strokes"><g class="inner-stroke-shape"><defs><clipPath id="inner-stroke-render-13-07206f0f-94c5-8018-8005-d50cdfd2b5f6-0"><use href="#stroke-shape-render-13-07206f0f-94c5-8018-8005-d50cdfd2b5f6-0"/></clipPath><path id="stroke-shape-render-13-07206f0f-94c5-8018-8005-d50cdfd2b5f6-0" d="m106.5 493 4.997 13.868L125 512l-13.503 5.132L106.5 531l-4.997-13.868L88 512l13.503-5.132L106.5 493Z" style="fill:none;stroke-width:2;stroke:#fff;stroke-opacity:1"/></defs><use clip-path="url('#inner-stroke-render-13-07206f0f-94c5-8018-8005-d50cdfd2b5f6-0')" href="#stroke-shape-render-13-07206f0f-94c5-8018-8005-d50cdfd2b5f6-0"/></g></g></g></g><g id="shape-07206f0f-94c5-8018-8005-d50cdfd2b5f8"><g id="shape-07206f0f-94c5-8018-8005-d50cdfd2da61" style="opacity:1"><path id="fills-07206f0f-94c5-8018-8005-d50cdfd2da61" d="M129 475Za18.876 18.876 0 0 0 11.441 10.81l.559.19-.559.19A18.878 18.878 0 0 0 129 497a18.878 18.878 0 0 0-11.441-10.81L117 486l.559-.19A18.876 18.876 0 0 0 129 475Z" class="fills"/><g id="strokes-5b2f603d-fd94-80fa-8005-d5198321aa2f-07206f0f-94c5-8018-8005-d50cdfd2da61" fill-rule="nonzero" class="strokes"><g class="inner-stroke-shape"><defs><clipPath id="inner-stroke-render-15-07206f0f-94c5-8018-8005-d50cdfd2da61-0"><use href="#stroke-shape-render-15-07206f0f-94c5-8018-8005-d50cdfd2da61-0"/></clipPath><path id="stroke-shape-render-15-07206f0f-94c5-8018-8005-d50cdfd2da61-0" d="M129 475Za18.876 18.876 0 0 0 11.441 10.81l.559.19-.559.19A18.878 18.878 0 0 0 129 497a18.878 18.878 0 0 0-11.441-10.81L117 486l.559-.19A18.876 18.876 0 0 0 129 475Z" style="fill:none;stroke-width:2;stroke:#fff;stroke-opacity:1"/></defs><use clip-path="url('#inner-stroke-render-15-07206f0f-94c5-8018-8005-d50cdfd2da61-0')" href="#stroke-shape-render-15-07206f0f-94c5-8018-8005-d50cdfd2da61-0"/></g></g></g><g id="shape-07206f0f-94c5-8018-8005-d50cdfd31fae" style="opacity:1"><path id="fills-07206f0f-94c5-8018-8005-d50cdfd31fae" d="m129 475 3.241 8.029L141 486l-8.759 2.971L129 497l-3.241-8.029L117 486l8.759-2.971L129 475Z" class="fills"/><g id="strokes-5b2f603d-fd94-80fa-8005-d5198322173d-07206f0f-94c5-8018-8005-d50cdfd31fae" fill-rule="nonzero" class="strokes"><g class="inner-stroke-shape"><defs><clipPath id="inner-stroke-render-16-07206f0f-94c5-8018-8005-d50cdfd31fae-0"><use href="#stroke-shape-render-16-07206f0f-94c5-8018-8005-d50cdfd31fae-0"/></clipPath><path id="stroke-shape-render-16-07206f0f-94c5-8018-8005-d50cdfd31fae-0" d="m129 475 3.241 8.029L141 486l-8.759 2.971L129 497l-3.241-8.029L117 486l8.759-2.971L129 475Z" style="fill:none;stroke-width:2;stroke:#fff;stroke-opacity:1"/></defs><use clip-path="url('#inner-stroke-render-16-07206f0f-94c5-8018-8005-d50cdfd31fae-0')" href="#stroke-shape-render-16-07206f0f-94c5-8018-8005-d50cdfd31fae-0"/></g></g></g></g><g id="shape-07206f0f-94c5-8018-8005-d50cdfd3621f"><g id="fills-07206f0f-94c5-8018-8005-d50cdfd3621f" class="fills"><rect width="114.261" height="41.773" x="457" y="128" class="frame-background" rx="20.386" ry="20.386" style="fill:#fff;fill-opacity:1"/></g><g class="frame-children"><g id="shape-07206f0f-94c5-8018-8005-d50cdfd3af10" class="text-container" style="opacity:1"><defs><pattern id="fill-0-render-18-0" width="77.313" height="16.8" x="475.13" y="140.886" patternUnits="userSpaceOnUse"><path d="M0 0h77.313v16.8H0z" style="fill:#000;fill-opacity:1"/></pattern></defs><text id="fills-07206f0f-94c5-8018-8005-d50cdfd3af10" x="475.13" y="156.086" class="fills" dominant-baseline="ideographic" lengthAdjust="spacingAndGlyphs" style="text-transform:none;font-family:Inter;letter-spacing:-.572724px;font-style:normal;font-weight:400;white-space:pre;font-size:14.3181px;text-decoration:none solid #000;direction:ltr;fill:#000;fill-opacity:1" textLength="77.313">Pauta Digital</text></g></g></g><g id="shape-07206f0f-94c5-8018-8005-d50cdfd3c023"><g id="fills-07206f0f-94c5-8018-8005-d50cdfd3c023" class="fills"><rect width="114.261" height="41.773" y="353" class="frame-background" rx="20.386" ry="20.386" style="fill:#fff;fill-opacity:1"/></g><g class="frame-children"><g id="shape-07206f0f-94c5-8018-8005-d50cdfd43e8b" class="text-container" style="opacity:1"><defs><pattern id="fill-0-render-20-0" width="75.513" height="16.8" x="19.13" y="365.886" patternUnits="userSpaceOnUse"><path d="M0 0h75.513v16.8H0z" style="fill:#000;fill-opacity:1"/></pattern></defs><text id="fills-07206f0f-94c5-8018-8005-d50cdfd43e8b" x="19.13" y="381.086" class="fills" dominant-baseline="ideographic" lengthAdjust="spacingAndGlyphs" style="text-transform:none;font-family:Inter;letter-spacing:-.572724px;font-style:normal;font-weight:400;white-space:pre;font-size:14.3181px;text-decoration:none solid #000;direction:ltr;fill:#000;fill-opacity:1" textLength="75.513">Diseño Web</text></g></g></g><g id="shape-07206f0f-94c5-8018-8005-d50cdfd45a13"><g id="fills-07206f0f-94c5-8018-8005-d50cdfd45a13" class="fills"><rect width="139.465" height="41.773" x="28" y="52" class="frame-background" rx="20.386" ry="20.386" style="fill:#fff;fill-opacity:1"/></g><g class="frame-children"><g id="shape-07206f0f-94c5-8018-8005-d50cdfd48fa9" class="text-container" style="opacity:1"><defs><pattern id="fill-0-render-22-0" width="103.45" height="16.8" x="45.733" y="64.886" patternUnits="userSpaceOnUse"><path d="M0 0h103.45v16.8H0z" style="fill:#000;fill-opacity:1"/></pattern></defs><text id="fills-07206f0f-94c5-8018-8005-d50cdfd48fa9" x="45.733" y="80.086" class="fills" dominant-baseline="ideographic" lengthAdjust="spacingAndGlyphs" style="text-transform:none;font-family:Inter;letter-spacing:-.572724px;font-style:normal;font-weight:400;white-space:pre;font-size:14.3181px;text-decoration:none solid #000;direction:ltr;fill:#000;fill-opacity:1" textLength="103.45">Estrategia Digital</text></g></g></g><g id="shape-07206f0f-94c5-8018-8005-d50cdfd4f8e4"><g id="fills-07206f0f-94c5-8018-8005-d50cdfd4f8e4" class="fills"><rect width="114.261" height="41.773" x="406" y="394" class="frame-background" rx="20.386" ry="20.386" style="fill:#fff;fill-opacity:1"/></g><g class="frame-children"><g id="shape-07206f0f-94c5-8018-8005-d50cdfd50383" class="text-container" style="opacity:1"><defs><pattern id="fill-0-render-24-0" width="75.3" height="16.8" x="423.643" y="406.886" patternUnits="userSpaceOnUse"><path d="M0 0h75.3v16.8H0z" style="fill:#000;fill-opacity:1"/></pattern></defs><text id="fills-07206f0f-94c5-8018-8005-d50cdfd50383" x="423.644" y="422.086" class="fills" dominant-baseline="ideographic" lengthAdjust="spacingAndGlyphs" style="text-transform:none;font-family:Inter;letter-spacing:-.572724px;font-style:normal;font-weight:400;white-space:pre;font-size:14.3181px;text-decoration:none solid #000;direction:ltr;fill:#000;fill-opacity:1" textLength="75.3">Ecommerce</text></g></g></g></g></svg>